<svg width="25" height="20" viewBox="0 0 25 20" fill="none" xmlns="http://www.w3.org/2000/svg">
<path d="M22.9349 5.68876L21.3974 8.00126C22.1389 9.4801 22.5019 11.1198 22.4539 12.7734C22.4059 14.427 21.9484 16.0429 21.1224 17.4763H3.79743C2.72389 15.6139 2.27905 13.4552 2.52886 11.3201C2.77866 9.18503 3.70982 7.18729 5.18428 5.62304C6.65874 4.05879 8.59801 3.01131 10.7146 2.63588C12.8312 2.26044 15.0124 2.57705 16.9349 3.53876L19.2474 2.00126C16.893 0.491527 14.1003 -0.184988 11.316 0.0799267C8.53175 0.344841 5.91674 1.53588 3.8893 3.46252C1.86186 5.38917 0.539134 7.9401 0.132704 10.7073C-0.273727 13.4745 0.25962 16.298 1.64743 18.7263C1.86557 19.1041 2.17879 19.4183 2.55597 19.6376C2.93315 19.8569 3.36115 19.9736 3.79743 19.9763H21.1099C21.5505 19.978 21.9836 19.8633 22.3656 19.6438C22.7475 19.4243 23.0647 19.1078 23.2849 18.7263C24.4367 16.7312 25.0146 14.4566 24.9551 12.1537C24.8955 9.8508 24.2007 7.60916 22.9474 5.67626L22.9349 5.68876ZM10.6974 14.2388C10.9296 14.4712 11.2053 14.6556 11.5088 14.7814C11.8123 14.9072 12.1376 14.972 12.4662 14.972C12.7947 14.972 13.12 14.9072 13.4235 14.7814C13.727 14.6556 14.0028 14.4712 14.2349 14.2388L21.3099 3.62626L10.6974 10.7013C10.465 10.9334 10.2806 11.2092 10.1548 11.5127C10.029 11.8162 9.96422 12.1415 9.96422 12.47C9.96422 12.7985 10.029 13.1239 10.1548 13.4274C10.2806 13.7309 10.465 14.0066 10.6974 14.2388Z" fill="white"/>
</svg>