<svg width="15" height="15" viewBox="0 0 15 15" fill="none" xmlns="http://www.w3.org/2000/svg">
<circle cx="7.5" cy="7.5" r="7" stroke="#B7B7B7"/>
<path d="M8.12859 11H6.86859V6.04H8.12859V11ZM6.60859 4.6C6.60859 4.34667 6.69193 4.14 6.85859 3.98C7.03193 3.82 7.24526 3.74 7.49859 3.74C7.75193 3.74 7.96193 3.82 8.12859 3.98C8.30193 4.14 8.38859 4.34667 8.38859 4.6C8.38859 4.85333 8.30193 5.06 8.12859 5.22C7.96193 5.38 7.75193 5.46 7.49859 5.46C7.24526 5.46 7.03193 5.38 6.85859 5.22C6.69193 5.06 6.60859 4.85333 6.60859 4.6Z" fill="#B7B7B7"/>
</svg>
