<?xml version="1.0" encoding="UTF-8"?><svg id="Layer_1" xmlns="http://www.w3.org/2000/svg" viewBox="0 0 278.83 82.53"><defs><style>.cls-1{fill:white;}</style></defs><path class="cls-1" d="M149.28,38.91c-2.52,0-4.9-.61-6.99-1.68l11.78-6.8-19.29-11.14c1.96-6.08,7.71-10.48,14.5-10.48,8.41,0,15.22,6.74,15.22,15.05s-6.81,15.05-15.22,15.05Z"/><path class="cls-1" d="M127.48,45.78V15.08l7.3,4.21c-.46,1.44-.71,2.97-.71,4.57,0,5.82,3.34,10.87,8.23,13.37l-14.81,8.55Z"/><g><path class="cls-1" d="M16.01,72.22l-.53-9.53c4.13,0,7.2-.98,9.21-2.94s3.01-4.91,3.01-8.86V16.33h10.91V50.76c0,5.1-.76,9.23-2.29,12.38-1.52,3.15-3.94,5.46-7.26,6.91-3.32,1.45-7.67,2.18-13.05,2.18Z"/><path class="cls-1" d="M71.39,70.53c-4.04,0-7.76-.69-11.18-2.07-3.41-1.38-6.38-3.32-8.89-5.81-2.52-2.49-4.46-5.41-5.85-8.77-1.38-3.35-2.07-7.01-2.07-10.98s.69-7.63,2.07-11c1.38-3.37,3.33-6.29,5.85-8.77,2.51-2.48,5.48-4.41,8.89-5.79,3.41-1.38,7.14-2.07,11.18-2.07s7.76,.69,11.16,2.07c3.4,1.38,6.35,3.31,8.84,5.79,2.49,2.48,4.43,5.4,5.83,8.77s2.09,7.03,2.09,11-.7,7.63-2.09,10.98-3.34,6.28-5.83,8.77-5.44,4.43-8.84,5.81c-3.4,1.38-7.12,2.07-11.16,2.07Zm0-9.53c2.38,0,4.6-.46,6.64-1.38,2.04-.92,3.82-2.2,5.33-3.84,1.51-1.64,2.69-3.55,3.53-5.74,.84-2.18,1.26-4.56,1.26-7.14s-.42-4.96-1.26-7.16c-.84-2.2-2.01-4.11-3.53-5.76-1.51-1.64-3.29-2.92-5.33-3.83s-4.26-1.36-6.64-1.36-4.64,.46-6.68,1.36c-2.04,.91-3.83,2.18-5.35,3.83s-2.7,3.56-3.54,5.76c-.84,2.2-1.26,4.58-1.26,7.16s.42,4.96,1.26,7.16c.84,2.2,2.02,4.12,3.54,5.76s3.31,2.92,5.35,3.83c2.04,.91,4.27,1.36,6.68,1.36Z"/><path class="cls-1" d="M138.83,69.47h-34.72V16.33h10.91V59.94h23.81v9.53Z"/><path class="cls-1" d="M159.55,69.47h-10.91v-25.66h10.91v25.66Z"/><path class="cls-1" d="M217.47,69.47h-12.54l-24.83-36.28v36.28h-10.91V16.33h12.54l24.83,36.35V16.33h10.91v53.14Z"/><path class="cls-1" d="M249.07,69.47h-10.91V25.86h-15.66v-9.53h42.26v9.53h-15.69v43.61Z"/></g></svg>