<svg width="14" height="14" viewBox="0 0 14 14" fill="none" xmlns="http://www.w3.org/2000/svg">
<path d="M13.5 7C13.5 10.5899 10.5899 13.5 7 13.5C3.41015 13.5 0.5 10.5899 0.5 7C0.5 3.41015 3.41015 0.5 7 0.5C10.5899 0.5 13.5 3.41015 13.5 7Z" stroke="#EE6A76"/>
<path d="M6.64645 10.5843C6.84171 10.7796 7.15829 10.7796 7.35355 10.5843L10.5355 7.40235C10.7308 7.20709 10.7308 6.8905 10.5355 6.69524C10.3403 6.49998 10.0237 6.49998 9.82843 6.69524L7 9.52367L4.17157 6.69524C3.97631 6.49998 3.65973 6.49998 3.46447 6.69524C3.2692 6.8905 3.2692 7.20709 3.46447 7.40235L6.64645 10.5843ZM6.5 3.23077V10.2308H7.5V3.23077H6.5Z" fill="#EE6A76"/>
</svg>
