<svg width="20" height="20" viewBox="0 0 20 20" fill="none" xmlns="http://www.w3.org/2000/svg">
<g id="Fluxuation">
<path id="Ellipse 22" d="M19.5 10.0002C19.5 15.2469 15.2467 19.5002 10 19.5002C4.75329 19.5002 0.5 15.2469 0.5 10.0002C0.5 4.75348 4.75329 0.500183 10 0.500183C15.2467 0.500183 19.5 4.75348 19.5 10.0002Z" fill="#EE6A76" stroke="#EE6A76"/>
<path id="Arrow 1" d="M9.46967 15.1459C9.76256 15.4388 10.2374 15.4388 10.5303 15.1459L15.3033 10.3729C15.5962 10.08 15.5962 9.60516 15.3033 9.31227C15.0104 9.01938 14.5355 9.01938 14.2426 9.31227L10 13.5549L5.75736 9.31227C5.46447 9.01938 4.98959 9.01938 4.6967 9.31227C4.40381 9.60516 4.40381 10.08 4.6967 10.3729L9.46967 15.1459ZM9.25 4.61557L9.25 14.6156H10.75L10.75 4.61557H9.25Z" fill="white"/>
</g>
</svg>
