<svg width="20" height="20" viewBox="0 0 20 20" fill="none" xmlns="http://www.w3.org/2000/svg">
<g id="Fluxuation">
<path id="Ellipse 22" d="M0.500001 10.0002C0.5 4.75348 4.75329 0.500184 10 0.500184C15.2467 0.500183 19.5 4.75348 19.5 10.0002C19.5 15.2469 15.2467 19.5002 10 19.5002C4.7533 19.5002 0.500001 15.2469 0.500001 10.0002Z" fill="#4FBB4D" stroke="#4FBB4D"/>
<path id="Arrow 1" d="M10.5303 4.85447C10.2374 4.56157 9.76256 4.56157 9.46967 4.85447L4.6967 9.62744C4.40381 9.92033 4.40381 10.3952 4.6967 10.6881C4.98959 10.981 5.46447 10.981 5.75736 10.6881L10 6.44546L14.2426 10.6881C14.5355 10.981 15.0104 10.981 15.3033 10.6881C15.5962 10.3952 15.5962 9.92033 15.3033 9.62744L10.5303 4.85447ZM10.75 15.3848L10.75 5.3848L9.25 5.3848L9.25 15.3848L10.75 15.3848Z" fill="white"/>
</g>
</svg>
