<svg width="14" height="14" viewBox="0 0 14 14" fill="none" xmlns="http://www.w3.org/2000/svg">
<path d="M0.5 7C0.5 3.41015 3.41015 0.5 7 0.5C10.5898 0.499999 13.5 3.41015 13.5 7C13.5 10.5899 10.5899 13.5 7 13.5C3.41015 13.5 0.500001 10.5899 0.5 7Z" stroke="#4FBB4D"/>
<path d="M7.35355 3.41567C7.15829 3.22041 6.84171 3.22041 6.64645 3.41567L3.46447 6.59765C3.2692 6.79292 3.2692 7.1095 3.46447 7.30476C3.65973 7.50002 3.97631 7.50002 4.17157 7.30476L7 4.47633L9.82843 7.30476C10.0237 7.50002 10.3403 7.50002 10.5355 7.30476C10.7308 7.1095 10.7308 6.79291 10.5355 6.59765L7.35355 3.41567ZM7.5 10.7692L7.5 3.76923L6.5 3.76923L6.5 10.7692L7.5 10.7692Z" fill="#4FBB4D"/>
</svg>
