<svg width="29" height="29" viewBox="0 0 29 29" fill="none" xmlns="http://www.w3.org/2000/svg">
<path d="M24.9125 15.8708C24.9708 15.4333 25 14.9813 25 14.5C25 14.0333 24.9708 13.5667 24.8979 13.1292L27.8583 10.825C28.1208 10.6208 28.1938 10.2271 28.0333 9.93542L25.2333 5.09375C25.0583 4.77292 24.6938 4.67083 24.3729 4.77292L20.8875 6.17292C20.1583 5.61875 19.3854 5.15208 18.525 4.80208L18 1.09792C17.9417 0.747916 17.65 0.5 17.3 0.5H11.7C11.35 0.5 11.0729 0.747916 11.0146 1.09792L10.4896 4.80208C9.62916 5.15208 8.84166 5.63333 8.12708 6.17292L4.64166 4.77292C4.32083 4.65625 3.95625 4.77292 3.78125 5.09375L0.995831 9.93542C0.820831 10.2417 0.879164 10.6208 1.17083 10.825L4.13125 13.1292C4.05833 13.5667 4 14.0479 4 14.5C4 14.9521 4.02916 15.4333 4.10208 15.8708L1.14166 18.175C0.879164 18.3792 0.806247 18.7729 0.966664 19.0646L3.76666 23.9063C3.94166 24.2271 4.30625 24.3292 4.62708 24.2271L8.1125 22.8271C8.84166 23.3813 9.61458 23.8479 10.475 24.1979L11 27.9021C11.0729 28.2521 11.35 28.5 11.7 28.5H17.3C17.65 28.5 17.9417 28.2521 17.9854 27.9021L18.5104 24.1979C19.3708 23.8479 20.1583 23.3813 20.8729 22.8271L24.3583 24.2271C24.6792 24.3438 25.0437 24.2271 25.2188 23.9063L28.0187 19.0646C28.1938 18.7437 28.1208 18.3792 27.8437 18.175L24.9125 15.8708ZM14.5 19.75C11.6125 19.75 9.25 17.3875 9.25 14.5C9.25 11.6125 11.6125 9.25 14.5 9.25C17.3875 9.25 19.75 11.6125 19.75 14.5C19.75 17.3875 17.3875 19.75 14.5 19.75Z" fill="white"/>
</svg>
