<svg width="74" height="74" viewBox="0 0 74 74" fill="none" xmlns="http://www.w3.org/2000/svg">
<path d="M37 0C16.576 0 0 16.576 0 37C0 57.424 16.576 74 37 74C57.424 74 74 57.424 74 37C74 16.576 57.424 0 37 0ZM37 11.1C43.142 11.1 48.1 16.058 48.1 22.2C48.1 28.342 43.142 33.3 37 33.3C30.858 33.3 25.9 28.342 25.9 22.2C25.9 16.058 30.858 11.1 37 11.1ZM37 63.64C27.75 63.64 19.573 58.904 14.8 51.726C14.911 44.363 29.6 40.33 37 40.33C44.363 40.33 59.089 44.363 59.2 51.726C54.427 58.904 46.25 63.64 37 63.64Z" fill="white"/>
</svg>
